<mxfile host="app.diagrams.net" modified="2024-07-11T18:37:13.093Z" agent="Mozilla/5.0 (Windows NT 10.0; Win64; x64) AppleWebKit/537.36 (KHTML, like Gecko) Chrome/126.0.0.0 Safari/537.36" etag="cYA5tqJs1bIbEm7nqojR" version="24.6.4" type="device">
  <diagram name="Seite-1" id="-Ce6UastXVxnx9hMV_J5">
    <mxGraphModel dx="276" dy="144" grid="1" gridSize="10" guides="1" tooltips="1" connect="1" arrows="1" fold="1" page="1" pageScale="1" pageWidth="1100" pageHeight="850" math="0" shadow="0">
      <root>
        <mxCell id="0" />
        <mxCell id="1" parent="0" />
        <mxCell id="nYWo8sa4pcQ7O2iAQIdF-16" value="E2E-encrypted" style="edgeStyle=orthogonalEdgeStyle;rounded=0;orthogonalLoop=1;jettySize=auto;html=1;endArrow=block;endFill=1;startArrow=none;startFill=0;strokeColor=#82b366;fillColor=#d5e8d4;labelBackgroundColor=none;labelPosition=center;verticalLabelPosition=top;align=center;verticalAlign=bottom;" parent="1" source="e87cn4tuQxFbmSBaHtah-1" target="nYWo8sa4pcQ7O2iAQIdF-6" edge="1">
          <mxGeometry relative="1" as="geometry">
            <mxPoint x="462.5" y="371" as="sourcePoint" />
            <mxPoint x="435" y="280" as="targetPoint" />
            <Array as="points">
              <mxPoint x="470" y="400" />
              <mxPoint x="815" y="400" />
            </Array>
          </mxGeometry>
        </mxCell>
        <mxCell id="nYWo8sa4pcQ7O2iAQIdF-4" value="TLS termination&lt;br&gt;proxy" style="verticalLabelPosition=top;html=1;verticalAlign=bottom;align=center;strokeColor=none;fillColor=#00BEF2;shape=mxgraph.azure.server_rack;labelPosition=center;" parent="1" vertex="1">
          <mxGeometry x="560" y="320" width="50" height="50" as="geometry" />
        </mxCell>
        <mxCell id="nYWo8sa4pcQ7O2iAQIdF-5" value="API GW" style="verticalLabelPosition=top;html=1;verticalAlign=bottom;align=center;strokeColor=none;fillColor=#00BEF2;shape=mxgraph.azure.server_rack;labelPosition=center;" parent="1" vertex="1">
          <mxGeometry x="680" y="320" width="50" height="50" as="geometry" />
        </mxCell>
        <mxCell id="nYWo8sa4pcQ7O2iAQIdF-6" value="Actual&lt;br&gt;Consumer" style="verticalLabelPosition=top;html=1;verticalAlign=bottom;align=center;strokeColor=none;fillColor=#00BEF2;shape=mxgraph.azure.server_rack;labelPosition=center;spacing=4;" parent="1" vertex="1">
          <mxGeometry x="790" y="320" width="50" height="50" as="geometry" />
        </mxCell>
        <mxCell id="nYWo8sa4pcQ7O2iAQIdF-7" value="TLS" style="edgeStyle=orthogonalEdgeStyle;rounded=0;orthogonalLoop=1;jettySize=auto;html=1;endArrow=block;endFill=1;startArrow=none;startFill=0;strokeColor=#b85450;fillColor=#f8cecc;labelPosition=center;verticalLabelPosition=top;align=center;verticalAlign=bottom;labelBackgroundColor=none;" parent="1" source="e87cn4tuQxFbmSBaHtah-1" target="nYWo8sa4pcQ7O2iAQIdF-4" edge="1">
          <mxGeometry x="0.0051" relative="1" as="geometry">
            <mxPoint x="440" y="345" as="targetPoint" />
            <mxPoint x="495" y="345" as="sourcePoint" />
            <mxPoint as="offset" />
          </mxGeometry>
        </mxCell>
        <mxCell id="nYWo8sa4pcQ7O2iAQIdF-9" value="TLS" style="edgeStyle=orthogonalEdgeStyle;rounded=0;orthogonalLoop=1;jettySize=auto;html=1;entryX=0;entryY=0.5;entryDx=0;entryDy=0;entryPerimeter=0;endArrow=block;endFill=1;startArrow=none;startFill=0;labelPosition=center;verticalLabelPosition=top;align=center;verticalAlign=bottom;strokeColor=#b85450;fillColor=#f8cecc;labelBackgroundColor=none;" parent="1" source="nYWo8sa4pcQ7O2iAQIdF-4" target="nYWo8sa4pcQ7O2iAQIdF-5" edge="1">
          <mxGeometry x="0.0068" relative="1" as="geometry">
            <mxPoint as="offset" />
          </mxGeometry>
        </mxCell>
        <mxCell id="nYWo8sa4pcQ7O2iAQIdF-10" value="TLS" style="edgeStyle=orthogonalEdgeStyle;rounded=0;orthogonalLoop=1;jettySize=auto;html=1;entryX=0;entryY=0.5;entryDx=0;entryDy=0;entryPerimeter=0;endArrow=block;endFill=1;startArrow=none;startFill=0;strokeColor=#b85450;fillColor=#f8cecc;labelPosition=center;verticalLabelPosition=top;align=center;verticalAlign=bottom;labelBackgroundColor=none;" parent="1" source="nYWo8sa4pcQ7O2iAQIdF-5" target="nYWo8sa4pcQ7O2iAQIdF-6" edge="1">
          <mxGeometry relative="1" as="geometry" />
        </mxCell>
        <mxCell id="e87cn4tuQxFbmSBaHtah-1" value="" style="verticalLabelPosition=bottom;aspect=fixed;html=1;shape=mxgraph.salesforce.web;" vertex="1" parent="1">
          <mxGeometry x="440" y="321.3" width="60" height="47.400000000000006" as="geometry" />
        </mxCell>
      </root>
    </mxGraphModel>
  </diagram>
</mxfile>
